<?xml version="1.0" encoding="UTF-8"?>
<!-- Do not edit this file with editors other than diagrams.net -->
<!DOCTYPE svg PUBLIC "-//W3C//DTD SVG 1.1//EN" "http://www.w3.org/Graphics/SVG/1.1/DTD/svg11.dtd">
<svg xmlns="http://www.w3.org/2000/svg" xmlns:xlink="http://www.w3.org/1999/xlink" version="1.1" width="369px" height="361px" viewBox="-0.5 -0.5 369 361" content="&lt;mxfile host=&quot;app.diagrams.net&quot; modified=&quot;2023-03-23T23:50:23.942Z&quot; agent=&quot;Mozilla/5.0 (Macintosh; Intel Mac OS X 10_15_7) AppleWebKit/537.36 (KHTML, like Gecko) Chrome/108.0.0.0 Safari/537.36&quot; etag=&quot;xX-giYWn-VHprhUoH7BG&quot; version=&quot;21.1.0&quot; type=&quot;device&quot;&gt;&lt;diagram name=&quot;Seite-1&quot; id=&quot;zRbTXhDVb9ZZqOJGQqrc&quot;&gt;3dnbbpswGADgp8llUbE5OJctSbdpmzYpnXZZOcEBawYj4y7pnn4mGAKEKnTCId1V4Lcx8OXHB5jBINl/EDiLv/KQsBm4DfczuJgBYNtzR/0UkZcy4iFQBiJBQ13pGFjRP0QHb3X0mYYkb1WUnDNJs3Zww9OUbGQrhoXgu3a1LWfts2Y4IieB1Qaz0+hPGsq4jCLgH+MfCY3i6sy2Ny9LElxV1neSxzjku0YILmcwEJzLcivZB4QVeJVLedzDK6X1hQmSyiEHLG+2+Xy7ePwmPI7Wnx4/L7Y/bnQrvzF71jesL1a+VAKqFYWtdu53MZVkleFNUbJT/7eKxTJhas9Wm7opIiTZv3qNdn3nKmUIT4gUL6pKdUCFpbMF6d3dkR56OhY32Osg1n93VDd9FFEbGuUNQO55oOKOqcqYL3hN2HeeU0l5qorWXEqeKJiqwh2jUVEgeUdOpUZWNJbso+IpstY4pxsLPWWcpvIpl1iMYQvbtvMeW6fP1jFl6523lYLiNGIDsk9wiTW8446UjX5brM7OBllfNiJTYL4hsBsbjkQGO2RwajJkikw9PqOIga6YN7HY3JCYKbCeMeKiXtVMZXSwkby6/T6Y+pG0B0w6/rEbQyOZOfa1mQFDZsZ6/skHSxuaSjNT84vJB0swgGzwcgDnWbkg29I9UWe931LGAs64ODQEQ5eg0Clmv1LwX6RRgsAaep6ZJ7lO04Yx6DEGxoyd/874JI8nNx6wanvnxvWoPpnxgNXbOzN2bOfKjAcs+AR/TsPC7DBfPOPcYX1AwTII7u76YNfIddyxpuxeO3l7puyox9XcWx0wYJFjHLY5pfDHknaRNQdtbGQ57qk3tCqEy5BXz9K1kHv+WOK+hVBL3EeW1wd+614UfMx3u9fRQXdfDxfZ3pPbF+2j4YCV2Ttjdrwus7FxUO0ev4AcyhrfkeDyLw==&lt;/diagram&gt;&lt;/mxfile&gt;" style="background-color: rgb(255, 255, 255);"><defs/><g><ellipse cx="183" cy="180" rx="180" ry="180" fill="rgb(255, 255, 255)" stroke="rgb(0, 0, 0)" pointer-events="all"/><path d="M 112.17 109.17 L 112.17 10 L 183 80.83 L 253.83 10 L 253.83 109.17 L 353 109.17 L 282.17 180 L 353 250.83 L 253.83 250.83 L 253.83 350 L 183 279.17 L 112.17 350 L 112.17 250.83 L 13 250.83 L 83.83 180 L 13 109.17 Z" fill="rgb(255, 255, 255)" stroke="rgb(0, 0, 0)" stroke-miterlimit="10" pointer-events="all"/><path d="M 53 40 L 113 80 L 53 120 Z" fill="rgb(255, 255, 255)" stroke="rgb(0, 0, 0)" stroke-miterlimit="10" transform="rotate(45,83,80)" pointer-events="all"/><path d="M 253 240 L 313 280 L 253 320 Z" fill="rgb(255, 255, 255)" stroke="rgb(0, 0, 0)" stroke-miterlimit="10" transform="rotate(-135,283,280)" pointer-events="all"/><path d="M 153 280 L 213 320 L 153 360 Z" fill="rgb(255, 255, 255)" stroke="rgb(0, 0, 0)" stroke-miterlimit="10" transform="rotate(-90,183,320)" pointer-events="all"/><path d="M 153 0 L 213 40 L 153 80 Z" fill="rgb(255, 255, 255)" stroke="rgb(0, 0, 0)" stroke-miterlimit="10" transform="rotate(90,183,40)" pointer-events="all"/><path d="M 13 140 L 73 180 L 13 220 Z" fill="rgb(255, 255, 255)" stroke="rgb(0, 0, 0)" stroke-miterlimit="10" pointer-events="all"/><path d="M 293 140 L 353 180 L 293 220 Z" fill="rgb(255, 255, 255)" stroke="rgb(0, 0, 0)" stroke-miterlimit="10" transform="rotate(-180,323,180)" pointer-events="all"/><path d="M 253 40 L 313 80 L 253 120 Z" fill="rgb(255, 255, 255)" stroke="rgb(0, 0, 0)" stroke-miterlimit="10" transform="rotate(135,283,80)" pointer-events="all"/><path d="M 53 240 L 113 280 L 53 320 Z" fill="rgb(255, 255, 255)" stroke="rgb(0, 0, 0)" stroke-miterlimit="10" transform="rotate(-45,83,280)" pointer-events="all"/><ellipse cx="303" cy="300" rx="10" ry="10" fill="#d5e8d4" stroke="#82b366" pointer-events="all"/><ellipse cx="63" cy="300" rx="10" ry="10" fill="#d5e8d4" stroke="#82b366" pointer-events="all"/><ellipse cx="63" cy="60" rx="10" ry="10" fill="#d5e8d4" stroke="#82b366" pointer-events="all"/><ellipse cx="307" cy="60" rx="10" ry="10" fill="#d5e8d4" stroke="#82b366" pointer-events="all"/><rect x="143" y="0" width="80" height="360" fill="#f8ceccaa" stroke="#b85450" pointer-events="all"/><rect x="141.92" y="8.45" width="83.29" height="360" fill="#f8ceccaa" stroke="#b85450" transform="rotate(-70,183.57,188.45)" pointer-events="all"/><rect x="140.88" y="-1.4" width="83.05" height="360" fill="#f8ceccaa" stroke="#b85450" transform="rotate(67,182.41,178.6)" pointer-events="all"/><ellipse cx="13" cy="188.45" rx="10" ry="10" fill="#d5e8d4" stroke="#82b366" pointer-events="all"/><ellipse cx="353" cy="180" rx="10" ry="10" fill="#d5e8d4" stroke="#82b366" pointer-events="all"/></g></svg>